<?xml version="1.0" encoding="UTF-8"?>
<svg xmlns="http://www.w3.org/2000/svg" viewBox="330 130 620 410">
  <defs>

    <filter id="neonGlow" x="-30%" y="-30%" width="160%" height="160%">
      <feGaussianBlur in="SourceGraphic" stdDeviation="5" result="blur1"/>
      <feGaussianBlur in="SourceGraphic" stdDeviation="10" result="blur2"/>
      <feMerge>
        <feMergeNode in="blur2"/>
        <feMergeNode in="blur1"/>
        <feMergeNode in="SourceGraphic"/>
      </feMerge>
    </filter>

    <filter id="softGlow" x="-20%" y="-20%" width="140%" height="140%">
      <feGaussianBlur in="SourceGraphic" stdDeviation="3" result="blur"/>
      <feMerge>
        <feMergeNode in="blur"/>
        <feMergeNode in="SourceGraphic"/>
      </feMerge>
    </filter>

  </defs>

  <!-- Primary cyan strokes -->
  <g fill="none" stroke="#00e5ff" stroke-miterlimit="10" stroke-linecap="round" stroke-width="5" filter="url(#neonGlow)">
    <path d="M906.5,154.5c-181.21-.49-362.5-.49-544.26-.02v.02h544.26"/>
    <line x1="362.88" y1="155.14" x2="424.5" y2="213.5"/>
    <polyline points="502.74 458.67 502.83 458.32 568.5 213.5"/>
    <path d="M580.5,415.5c17.52-60.42,36.5-140.5,54.18-200.33"/>
    <path d="M772.37,303.85c63.86,1.1,138.32-3.19,152.13-36.35,11.95-28.7,30.21-61.86,19-88-5.09-11.87-32.06-23.84-36.4-25.38"/>
    <path d="M647.19,380.56c.34-.18.68-.35,1.02-.52,19.35-9.98,38.73-19.92,58.1-29.86"/>
    <path d="M503.5,458.5c8.57-6.77,18.95-11.63,28.49-16.87,10.33-5.68,20.73-11.23,31.15-16.75,5.81-3.08,11.63-6.15,17.46-9.2.13-.07.27-.14.4-.21"/>
    <path d="M648.65,378.36c9.04-34.48,16.8-68.3,30.98-117.18"/>
    <path d="M647.77,381.7c.15-.55.29-1.11.44-1.66.15-.56.29-1.12.44-1.68"/>
    <polyline points="679.5 259.5 679.63 259.5 834.5 259.5 850.5 259.5"/>
    <polyline points="705.98 349.8 706.38 350.07 924.5 496.5"/>
    <polyline points="769.36 303.21 770.85 305.07 924.5 496.5"/>
    <path d="M855.25,215.13l31.56.06"/>
    <path d="M634.87,214.77c68.34.05,143.59-.38,220.38.64,2.08.03,4.17.06,6.25.09"/>
    <path d="M887.45,215.36s.01.03.04.11c0,.01.01.02.01.03.46,1.36,3.9,13.57-8,33-7.9,12.89-31.28,10.21-45,11"/>
    <line x1="424.5" y1="213.5" x2="568.5" y2="213.5"/>
  </g>

  <!-- Violet depth strokes -->
  <g fill="none" stroke="#c084fc" stroke-miterlimit="10" stroke-linecap="round" stroke-width="2.5" filter="url(#softGlow)">
    <line x1="356.5" y1="169.5" x2="416.5" y2="227.5"/>
    <line x1="541" y1="229.5" x2="416.5" y2="227.5"/>
    <polyline points="474.67 488.03 541.47 229.62 541.5 229.5"/>
    <line x1="580.24" y1="415.84" x2="576.5" y2="433.5"/>
    <polyline points="474.5 488.5 474.83 488.32 576.5 433.5"/>
    <path d="M356.5,169.5c.33-5.33.67-10.67,1-16"/>
    <line x1="357.5" y1="153.5" x2="422.5" y2="215.5"/>
    <line x1="422.5" y1="215.5" x2="563" y2="215.5"/>
    <polyline points="496.5 462.5 580.16 415.69 580.5 415.5"/>
    <polyline points="563.5 215.5 563.47 215.63 496.5 462.5"/>
    <polygon points="635.97 216.5 885.54 217.96 887 230.5 633 229.1 635.97 216.5"/>
  </g>

</svg>
